<svg width="19" height="17" viewBox="0 0 19 17" fill="none" xmlns="http://www.w3.org/2000/svg">
<path d="M16.6577 1.72248C15.686 0.748256 14.3979 0.153644 13.0261 0.0460549C11.6544 -0.0615344 10.2894 0.324993 9.17766 1.13582C8.01135 0.268317 6.55965 -0.125049 5.11492 0.0349333C3.67019 0.194916 2.33973 0.896362 1.39147 1.99802C0.443209 3.09967 -0.0524181 4.51971 0.00439579 5.97216C0.0612097 7.42461 0.666245 8.8016 1.69766 9.82582L7.39016 15.5275C7.86684 15.9966 8.50885 16.2595 9.17766 16.2595C9.84647 16.2595 10.4885 15.9966 10.9652 15.5275L16.6577 9.82582C17.7279 8.74898 18.3287 7.2924 18.3287 5.77415C18.3287 4.2559 17.7279 2.79932 16.6577 1.72248ZM15.3652 8.56082L9.67266 14.2533C9.60788 14.3187 9.53079 14.3706 9.44582 14.4061C9.36086 14.4415 9.26972 14.4598 9.17766 14.4598C9.08561 14.4598 8.99446 14.4415 8.9095 14.4061C8.82454 14.3706 8.74744 14.3187 8.68266 14.2533L2.99016 8.53332C2.27127 7.79847 1.86872 6.81133 1.86872 5.78332C1.86872 4.75531 2.27127 3.76817 2.99016 3.03332C3.72272 2.31005 4.71072 1.9045 5.74016 1.9045C6.7696 1.9045 7.7576 2.31005 8.49016 3.03332C8.57538 3.11923 8.67676 3.18743 8.78847 3.23397C8.90017 3.2805 9.01998 3.30446 9.141 3.30446C9.26201 3.30446 9.38182 3.2805 9.49352 3.23397C9.60523 3.18743 9.70661 3.11923 9.79183 3.03332C10.5244 2.31005 11.5124 1.9045 12.5418 1.9045C13.5713 1.9045 14.5593 2.31005 15.2918 3.03332C16.0206 3.75854 16.4364 4.74032 16.4501 5.76836C16.4638 6.7964 16.0743 7.78892 15.3652 8.53332V8.56082Z" fill="black"/>
</svg>
